<svg width="56" height="60" viewBox="0 0 56 60" fill="none" xmlns="http://www.w3.org/2000/svg">
<mask id="path-1-inside-1_53_292" fill="white">
<path d="M0.808838 50.525C0.808838 55.7502 5.08811 60 10.3475 60H49.1508C49.6271 60 50.0136 59.616 50.0136 59.1428V56.52C50.0136 56.3417 49.9463 56.1857 49.8531 56.0502C49.8428 56.0348 49.8462 56.0142 49.8359 55.9988C48.6194 54.4216 47.9757 52.529 47.9757 50.525C47.9757 48.521 48.6194 46.6284 49.8359 45.0495C49.8462 45.0358 49.8428 45.0152 49.8531 44.9998C49.9463 44.8626 50.0136 44.7066 50.0136 44.5283V42.7626H53.8735C54.3498 42.7626 54.7363 42.3786 54.7363 41.9055V39.2826C54.7363 39.1043 54.669 38.9483 54.5758 38.8111C54.5655 38.7957 54.5707 38.7751 54.5586 38.7614C53.3421 37.1825 52.7002 35.2899 52.7002 33.2859C52.7002 31.2819 53.3438 29.3893 54.5586 27.8104C54.5689 27.7967 54.5655 27.7761 54.5758 27.7607C54.669 27.6235 54.7363 27.4675 54.7363 27.2892V24.6664C54.7363 24.1932 54.3498 23.8092 53.8735 23.8092H44.8543V15.8222L51.6649 12.6302V18.5068C50.6934 18.86 49.9929 19.7789 49.9929 20.8657C49.9929 22.2543 51.13 23.3841 52.5276 23.3841C53.927 23.3841 55.0642 22.2543 55.0642 20.8657C55.0642 19.7789 54.3636 18.86 53.3904 18.5068V11.2793C53.3904 11.1284 53.3404 10.9947 53.2731 10.8713C53.2558 10.8387 53.2351 10.813 53.2127 10.7839C53.1385 10.6827 53.0488 10.6004 52.9383 10.5404C52.9245 10.5319 52.9176 10.5147 52.9021 10.5079L31.1365 0.0848584C30.8983 -0.0282861 30.624 -0.0282861 30.3859 0.0848584L8.61851 10.5079C8.32 10.6502 8.12847 10.9536 8.13019 11.2827C8.13192 11.6136 8.32345 11.9136 8.62541 12.0542L16.668 15.8222V23.8092H15.0702C12.5164 23.8092 10.118 24.7932 8.32 26.5795C6.52201 28.3658 5.53329 30.747 5.53329 33.2859C5.53329 36.5328 7.18634 39.4008 9.70041 41.11C7.3934 41.2643 5.23996 42.1849 3.59899 43.8169C1.79928 45.6032 0.808838 47.9844 0.808838 50.525ZM46.3175 49.6679H9.21554C8.7393 49.6679 8.35278 50.0519 8.35278 50.525C8.35278 50.9982 8.7393 51.3822 9.21554 51.3822H46.3175C46.4366 52.8976 46.8593 54.3462 47.5858 55.6628H10.6339C7.78164 55.6628 5.46082 53.3588 5.46082 50.525C5.46082 49.1484 5.99918 47.8575 6.96892 46.8924C7.96109 45.9204 9.26213 45.3855 10.6339 45.3855H47.5875C46.8593 46.7038 46.4383 48.1507 46.3175 49.6679ZM51.042 32.4287H13.9383C13.462 32.4287 13.0755 32.8128 13.0755 33.2859C13.0755 33.7591 13.462 34.1431 13.9383 34.1431H51.042C51.161 35.6602 51.5838 37.1071 52.3102 38.4254H15.3566C12.5044 38.4254 10.1836 36.1197 10.1836 33.2859C10.1836 31.911 10.7219 30.6184 11.6917 29.6533C12.6838 28.6813 13.9849 28.1464 15.3566 28.1464H52.3085C51.5821 29.4647 51.161 30.9133 51.042 32.4287ZM52.5294 21.6715C52.0825 21.6715 51.7201 21.3114 51.7201 20.8674C51.7201 20.4234 52.0825 20.0634 52.5294 20.0634C52.9763 20.0634 53.3404 20.4234 53.3404 20.8674C53.3404 21.3114 52.9763 21.6715 52.5294 21.6715ZM10.9997 11.2707L30.7638 1.80774L50.5261 11.2707L44.856 13.9279V11.4456C44.856 11.3342 44.8319 11.2279 44.7922 11.1284C44.7784 11.0924 44.7542 11.065 44.7352 11.0307C44.7024 10.9724 44.6697 10.9142 44.6231 10.8662C44.5937 10.8353 44.5575 10.8113 44.5247 10.7839C44.4764 10.7462 44.4281 10.7084 44.3711 10.681C44.3297 10.6604 44.2849 10.6484 44.24 10.6347C44.202 10.6227 44.1693 10.6022 44.1296 10.597L40.9909 10.0981C34.2044 9.0147 27.3231 9.01299 20.5366 10.0981L17.3962 10.597C17.3565 10.6039 17.3237 10.6244 17.2858 10.6347C17.2409 10.6484 17.196 10.6604 17.1546 10.681C17.0977 10.7084 17.0511 10.7444 17.0011 10.7839C16.9665 10.8113 16.932 10.8336 16.9027 10.8662C16.8561 10.9159 16.8233 10.9724 16.7905 11.0307C16.7716 11.0633 16.7474 11.0924 16.7336 11.1284C16.6939 11.2279 16.6698 11.3324 16.6698 11.4456V13.9279L10.9997 11.2707ZM18.3935 15.2805V12.1776L20.8093 11.7936C27.4128 10.7393 34.1095 10.7393 40.7165 11.7936L43.1288 12.1759V15.2805V23.8109H18.3935V15.2805ZM7.25881 33.2859C7.25881 31.2047 8.0698 29.2521 9.53994 27.7915C11.0135 26.3292 12.9772 25.5235 15.0702 25.5235H17.5308H43.9915H53.0108V26.4321H15.3566C13.5293 26.4321 11.7969 27.1435 10.4769 28.4361C9.17585 29.7304 8.45976 31.4516 8.45976 33.2842C8.45976 37.0625 11.5536 40.138 15.3584 40.138H53.0125V41.0466H49.1525H15.0702C10.7616 41.0483 7.25881 37.5665 7.25881 33.2859ZM10.3475 42.7626H15.0702H48.2881V43.6712H10.6339C8.80659 43.6712 7.0759 44.3826 5.75416 45.6752C4.45312 46.9678 3.73703 48.689 3.73703 50.5233C3.73703 54.3016 6.83088 57.3754 10.6356 57.3754H48.2898V58.284H10.3475C6.03887 58.284 2.53435 54.8022 2.53435 50.5233C2.53435 48.4421 3.34534 46.4895 4.81721 45.0289C6.28907 43.5683 8.2527 42.7626 10.3475 42.7626Z"/>
</mask>
<path d="M0.808838 50.525C0.808838 55.7502 5.08811 60 10.3475 60H49.1508C49.6271 60 50.0136 59.616 50.0136 59.1428V56.52C50.0136 56.3417 49.9463 56.1857 49.8531 56.0502C49.8428 56.0348 49.8462 56.0142 49.8359 55.9988C48.6194 54.4216 47.9757 52.529 47.9757 50.525C47.9757 48.521 48.6194 46.6284 49.8359 45.0495C49.8462 45.0358 49.8428 45.0152 49.8531 44.9998C49.9463 44.8626 50.0136 44.7066 50.0136 44.5283V42.7626H53.8735C54.3498 42.7626 54.7363 42.3786 54.7363 41.9055V39.2826C54.7363 39.1043 54.669 38.9483 54.5758 38.8111C54.5655 38.7957 54.5707 38.7751 54.5586 38.7614C53.3421 37.1825 52.7002 35.2899 52.7002 33.2859C52.7002 31.2819 53.3438 29.3893 54.5586 27.8104C54.5689 27.7967 54.5655 27.7761 54.5758 27.7607C54.669 27.6235 54.7363 27.4675 54.7363 27.2892V24.6664C54.7363 24.1932 54.3498 23.8092 53.8735 23.8092H44.8543V15.8222L51.6649 12.6302V18.5068C50.6934 18.86 49.9929 19.7789 49.9929 20.8657C49.9929 22.2543 51.13 23.3841 52.5276 23.3841C53.927 23.3841 55.0642 22.2543 55.0642 20.8657C55.0642 19.7789 54.3636 18.86 53.3904 18.5068V11.2793C53.3904 11.1284 53.3404 10.9947 53.2731 10.8713C53.2558 10.8387 53.2351 10.813 53.2127 10.7839C53.1385 10.6827 53.0488 10.6004 52.9383 10.5404C52.9245 10.5319 52.9176 10.5147 52.9021 10.5079L31.1365 0.0848584C30.8983 -0.0282861 30.624 -0.0282861 30.3859 0.0848584L8.61851 10.5079C8.32 10.6502 8.12847 10.9536 8.13019 11.2827C8.13192 11.6136 8.32345 11.9136 8.62541 12.0542L16.668 15.8222V23.8092H15.0702C12.5164 23.8092 10.118 24.7932 8.32 26.5795C6.52201 28.3658 5.53329 30.747 5.53329 33.2859C5.53329 36.5328 7.18634 39.4008 9.70041 41.11C7.3934 41.2643 5.23996 42.1849 3.59899 43.8169C1.79928 45.6032 0.808838 47.9844 0.808838 50.525ZM46.3175 49.6679H9.21554C8.7393 49.6679 8.35278 50.0519 8.35278 50.525C8.35278 50.9982 8.7393 51.3822 9.21554 51.3822H46.3175C46.4366 52.8976 46.8593 54.3462 47.5858 55.6628H10.6339C7.78164 55.6628 5.46082 53.3588 5.46082 50.525C5.46082 49.1484 5.99918 47.8575 6.96892 46.8924C7.96109 45.9204 9.26213 45.3855 10.6339 45.3855H47.5875C46.8593 46.7038 46.4383 48.1507 46.3175 49.6679ZM51.042 32.4287H13.9383C13.462 32.4287 13.0755 32.8128 13.0755 33.2859C13.0755 33.7591 13.462 34.1431 13.9383 34.1431H51.042C51.161 35.6602 51.5838 37.1071 52.3102 38.4254H15.3566C12.5044 38.4254 10.1836 36.1197 10.1836 33.2859C10.1836 31.911 10.7219 30.6184 11.6917 29.6533C12.6838 28.6813 13.9849 28.1464 15.3566 28.1464H52.3085C51.5821 29.4647 51.161 30.9133 51.042 32.4287ZM52.5294 21.6715C52.0825 21.6715 51.7201 21.3114 51.7201 20.8674C51.7201 20.4234 52.0825 20.0634 52.5294 20.0634C52.9763 20.0634 53.3404 20.4234 53.3404 20.8674C53.3404 21.3114 52.9763 21.6715 52.5294 21.6715ZM10.9997 11.2707L30.7638 1.80774L50.5261 11.2707L44.856 13.9279V11.4456C44.856 11.3342 44.8319 11.2279 44.7922 11.1284C44.7784 11.0924 44.7542 11.065 44.7352 11.0307C44.7024 10.9724 44.6697 10.9142 44.6231 10.8662C44.5937 10.8353 44.5575 10.8113 44.5247 10.7839C44.4764 10.7462 44.4281 10.7084 44.3711 10.681C44.3297 10.6604 44.2849 10.6484 44.24 10.6347C44.202 10.6227 44.1693 10.6022 44.1296 10.597L40.9909 10.0981C34.2044 9.0147 27.3231 9.01299 20.5366 10.0981L17.3962 10.597C17.3565 10.6039 17.3237 10.6244 17.2858 10.6347C17.2409 10.6484 17.196 10.6604 17.1546 10.681C17.0977 10.7084 17.0511 10.7444 17.0011 10.7839C16.9665 10.8113 16.932 10.8336 16.9027 10.8662C16.8561 10.9159 16.8233 10.9724 16.7905 11.0307C16.7716 11.0633 16.7474 11.0924 16.7336 11.1284C16.6939 11.2279 16.6698 11.3324 16.6698 11.4456V13.9279L10.9997 11.2707ZM18.3935 15.2805V12.1776L20.8093 11.7936C27.4128 10.7393 34.1095 10.7393 40.7165 11.7936L43.1288 12.1759V15.2805V23.8109H18.3935V15.2805ZM7.25881 33.2859C7.25881 31.2047 8.0698 29.2521 9.53994 27.7915C11.0135 26.3292 12.9772 25.5235 15.0702 25.5235H17.5308H43.9915H53.0108V26.4321H15.3566C13.5293 26.4321 11.7969 27.1435 10.4769 28.4361C9.17585 29.7304 8.45976 31.4516 8.45976 33.2842C8.45976 37.0625 11.5536 40.138 15.3584 40.138H53.0125V41.0466H49.1525H15.0702C10.7616 41.0483 7.25881 37.5665 7.25881 33.2859ZM10.3475 42.7626H15.0702H48.2881V43.6712H10.6339C8.80659 43.6712 7.0759 44.3826 5.75416 45.6752C4.45312 46.9678 3.73703 48.689 3.73703 50.5233C3.73703 54.3016 6.83088 57.3754 10.6356 57.3754H48.2898V58.284H10.3475C6.03887 58.284 2.53435 54.8022 2.53435 50.5233C2.53435 48.4421 3.34534 46.4895 4.81721 45.0289C6.28907 43.5683 8.2527 42.7626 10.3475 42.7626Z" stroke="white" stroke-width="2" mask="url(#path-1-inside-1_53_292)"/>
</svg>
