<svg width="60" height="60" viewBox="0 0 60 60" fill="none" xmlns="http://www.w3.org/2000/svg">
<path d="M58.6898 0H1.34419C0.878195 0 0.5 0.384 0.5 0.857143V28.2034C0.5 28.6766 0.878195 29.0606 1.34419 29.0606H10.6167C8.14326 30.6086 6.47684 33.3617 6.47684 36.5229V37.2686C6.47684 37.7417 6.85503 38.1257 7.32102 38.1257H22.9418C23.4078 38.1257 23.786 37.7417 23.786 37.2686V36.5229C23.786 33.3617 22.1196 30.6086 19.6461 29.0606H58.6881C59.1541 29.0606 59.5323 28.6766 59.5323 28.2034V0.857143C59.5339 0.384 59.1557 0 58.6898 0ZM15.1331 27.7337C12.4874 27.7337 10.3331 25.548 10.3331 22.86C10.3331 20.172 12.4858 17.9863 15.1331 17.9863C17.7805 17.9863 19.9332 20.172 19.9332 22.86C19.9332 25.548 17.7788 27.7337 15.1331 27.7337ZM22.0977 36.4114H8.1669C8.22599 32.5611 11.3275 29.448 15.1314 29.448C18.937 29.448 22.0403 32.5611 22.0977 36.4114ZM57.8456 27.3463H19.8572C20.9428 26.1686 21.6199 24.5983 21.6199 22.8617C21.6199 19.2291 18.7091 16.2737 15.1314 16.2737C11.5538 16.2737 8.64302 19.2291 8.64302 22.8617C8.64302 24.5983 9.32174 26.1686 10.4057 27.3463H2.18837V1.71429H57.8456V27.3463Z" fill="white"/>
<path d="M6.62537 58.6046V59.1429C6.62537 59.616 7.00356 60 7.46955 60H18.758H30.0465H41.3349H52.6234C53.0894 60 53.4676 59.616 53.4676 59.1429V58.6046C53.4676 56.0383 52.0004 53.8337 49.8848 52.7469C51.1022 51.8366 51.9024 50.3829 51.9024 48.7337C51.9024 45.9789 49.6941 43.7349 46.9791 43.7349C44.2642 43.7349 42.0559 45.9771 42.0559 48.7337C42.0559 50.3829 42.8561 51.8366 44.0735 52.7469C42.9152 53.3417 41.9664 54.2726 41.3349 55.4194C40.7035 54.2709 39.7546 53.3417 38.5964 52.7469C39.8137 51.8366 40.614 50.3829 40.614 48.7337C40.614 45.9789 38.4056 43.7349 35.6907 43.7349C32.9758 43.7349 30.7674 45.9771 30.7674 48.7337C30.7674 50.3829 31.5677 51.8366 32.785 52.7469C31.6268 53.3417 30.6779 54.2726 30.0465 55.4194C29.415 54.2709 28.4661 53.3417 27.3079 52.7469C28.5252 51.8366 29.3255 50.3829 29.3255 48.7337C29.3255 45.9789 27.1171 43.7349 24.4022 43.7349C21.6873 43.7349 19.4789 45.9771 19.4789 48.7337C19.4789 50.3829 20.2792 51.8366 21.4965 52.7469C20.3383 53.3417 19.3895 54.2726 18.758 55.4194C18.1266 54.2709 17.1777 53.3417 16.0195 52.7469C17.2368 51.8366 18.0371 50.3829 18.0371 48.7337C18.0371 45.9789 15.8287 43.7349 13.1138 43.7349C10.3989 43.7349 8.19049 45.9771 8.19049 48.7337C8.19049 50.3829 8.99078 51.8366 10.2081 52.7469C8.09425 53.832 6.62537 56.0366 6.62537 58.6046ZM43.7442 48.732C43.7442 46.9217 45.1945 45.4474 46.9791 45.4474C48.7638 45.4474 50.2141 46.92 50.2141 48.732C50.2141 50.544 48.7638 52.0166 46.9791 52.0166C45.1945 52.0166 43.7442 50.5423 43.7442 48.732ZM46.9791 53.7309C49.5202 53.7309 51.607 55.7469 51.7691 58.2857H42.1892C42.3513 55.7469 44.4365 53.7309 46.9791 53.7309ZM32.4558 48.732C32.4558 46.9217 33.9061 45.4474 35.6907 45.4474C37.4753 45.4474 38.9256 46.92 38.9256 48.732C38.9256 50.544 37.4753 52.0166 35.6907 52.0166C33.9061 52.0166 32.4558 50.5423 32.4558 48.732ZM35.6907 53.7309C38.2317 53.7309 40.3185 55.7469 40.4806 58.2857H30.9008C31.0629 55.7469 33.148 53.7309 35.6907 53.7309ZM21.169 48.732C21.169 46.9217 22.6193 45.4474 24.4039 45.4474C26.1885 45.4474 27.6388 46.92 27.6388 48.732C27.6388 50.544 26.1885 52.0166 24.4039 52.0166C22.6193 52.0166 21.169 50.5423 21.169 48.732ZM24.4022 53.7309C26.9432 53.7309 29.0301 55.7469 29.1921 58.2857H19.6123C19.7744 55.7469 21.8612 53.7309 24.4022 53.7309ZM9.88055 48.732C9.88055 46.9217 11.3309 45.4474 13.1155 45.4474C14.9001 45.4474 16.3504 46.92 16.3504 48.732C16.3504 50.544 14.9001 52.0166 13.1155 52.0166C11.3309 52.0166 9.88055 50.5423 9.88055 48.732ZM13.1138 53.7309C15.6548 53.7309 17.7416 55.7469 17.9037 58.2857H8.32387C8.48595 55.7469 10.5728 53.7309 13.1138 53.7309Z" fill="white"/>
<path d="M9.79792 8.68458H50.3189C50.7849 8.68458 51.163 8.30058 51.163 7.82743C51.163 7.35429 50.7849 6.97029 50.3189 6.97029H9.79792C9.33193 6.97029 8.95374 7.35429 8.95374 7.82743C8.95374 8.30058 9.33024 8.68458 9.79792 8.68458Z" fill="white"/>
<path d="M50.3188 13.6834H28.4932C28.0272 13.6834 27.649 14.0674 27.649 14.5406C27.649 15.0137 28.0272 15.3977 28.4932 15.3977H50.3188C50.7848 15.3977 51.163 15.0137 51.163 14.5406C51.163 14.0674 50.7848 13.6834 50.3188 13.6834Z" fill="white"/>
<path d="M50.3188 20.3983H28.4932C28.0272 20.3983 27.649 20.7823 27.649 21.2554C27.649 21.7286 28.0272 22.1126 28.4932 22.1126H50.3188C50.7848 22.1126 51.163 21.7286 51.163 21.2554C51.163 20.7823 50.7848 20.3983 50.3188 20.3983Z" fill="white"/>
</svg>
