<svg width="61" height="60" viewBox="0 0 61 60" fill="none" xmlns="http://www.w3.org/2000/svg">
<g clip-path="url(#clip0_51_283)">
<path d="M60.5322 55.6397L54.594 51.9197V54.4334H5.45473V6.57477H7.9741L4.25221 0.638416L0.532227 6.57477H3.0497V56.8422H54.594V59.3616L60.5322 55.6397Z" fill="white"/>
<path d="M7.82166 44.1024L8.85075 44.7256L12.2773 39.077H16.5308V38.5358L20.9655 42.6979V46.6694H26.3777V41.2533H25.1657L29.1201 26.8956H29.3469L32.9639 37.4971H31.79V42.9113H37.2023V38.8959L41.0366 36.0907V36.367H44.9415L48.2422 42.3072H47.7257V47.7195H53.138V42.3072H51.3066L53.3248 22.0093H55.6936V16.597H50.2813V22.0093H52.1127L50.0984 42.3072H49.6181L46.3174 36.367H46.4527V30.9548H41.0366V34.5985L37.0746 37.4971H34.2332L30.6161 26.8956H31.79V21.4833H26.3777V26.8956H27.8718L23.9174 41.2533H21.1865L16.5308 36.8835V33.6628H11.1186V38.6673L7.82166 44.1024Z" fill="white"/>
</g>
<defs>
<clipPath id="clip0_51_283">
<rect width="60" height="60" fill="white" transform="translate(0.532227)"/>
</clipPath>
</defs>
</svg>
