<svg width="62" height="60" viewBox="0 0 62 60" fill="none" xmlns="http://www.w3.org/2000/svg">
<path d="M61.5707 25.2149L50.7794 16.1909V3.55862C50.7794 3.38167 50.7084 3.21197 50.582 3.08685C50.4557 2.96173 50.2843 2.89144 50.1056 2.89144H41.9173C41.7385 2.89144 41.5672 2.96173 41.4408 3.08685C41.3144 3.21197 41.2434 3.38167 41.2434 3.55862V8.21713L31.6063 0.157893C31.4845 0.0559362 31.3301 0 31.1705 0C31.011 0 30.8566 0.0559362 30.7347 0.157893L0.770309 25.2149C0.66505 25.3034 0.58974 25.4218 0.554534 25.554C0.519328 25.6863 0.525919 25.826 0.573418 25.9544C0.620917 26.0828 0.707039 26.1938 0.820174 26.2722C0.933308 26.3506 1.06801 26.3928 1.20613 26.3931H7.48906V59.3473C7.4972 59.5191 7.57183 59.6811 7.69744 59.7997C7.82305 59.9184 7.99 59.9846 8.16361 59.9846C8.33722 59.9846 8.50417 59.9184 8.62978 59.7997C8.75539 59.6811 8.83002 59.5191 8.83816 59.3473V25.7259C8.83816 25.5486 8.76702 25.3785 8.64037 25.2531C8.51373 25.1277 8.34197 25.0573 8.16287 25.0573H3.04906L31.1705 1.54087L41.4814 10.1642C41.5795 10.2466 41.6994 10.2994 41.8269 10.3165C41.9543 10.3336 42.0841 10.3142 42.2008 10.2606C42.3174 10.207 42.4162 10.1215 42.4854 10.0141C42.5545 9.90671 42.5912 9.78196 42.5911 9.6546V4.23317H49.4333V16.5017C49.4332 16.5988 49.4547 16.6947 49.496 16.7828C49.5374 16.8708 49.5977 16.9488 49.6727 17.0113L59.2935 25.0573H54.1767C54.0033 25.0654 53.8397 25.1392 53.7198 25.2636C53.6 25.388 53.5331 25.5533 53.5331 25.7252C53.5331 25.8971 53.6 26.0624 53.7198 26.1868C53.8397 26.3112 54.0033 26.3851 54.1767 26.3931H61.1349C61.273 26.3928 61.4077 26.3506 61.5209 26.2722C61.634 26.1938 61.7201 26.0828 61.7676 25.9544C61.8151 25.826 61.8217 25.6863 61.7865 25.554C61.7513 25.4218 61.676 25.3034 61.5707 25.2149Z" fill="white"/>
<path d="M47.0862 44.332V35.554C47.0863 34.5066 46.787 33.4804 46.2229 32.5943C45.6588 31.7082 44.853 30.9982 43.8986 30.5465C45.0524 29.8853 45.9482 28.8591 46.4418 27.6329C46.9353 26.4067 46.998 25.0518 46.6198 23.786C46.2415 22.5202 45.4443 21.4172 44.3564 20.6544C43.2684 19.8915 41.953 19.5132 40.6216 19.5802C39.2902 19.6472 38.0202 20.1557 37.016 21.0238C36.0117 21.8919 35.3316 23.0693 35.0849 24.3665C34.8382 25.6637 35.0393 27.0054 35.6559 28.1757C36.2725 29.3461 37.2687 30.277 38.4843 30.8189C37.2492 31.5651 36.3541 32.7559 35.9869 34.1416L34.3299 40.3907C34.3232 40.417 34.3079 40.4402 34.2863 40.4568C34.2648 40.4733 34.2382 40.4822 34.2109 40.4821H29.2087C28.7075 40.4876 28.2168 40.6243 27.7863 40.8783C27.3557 41.1323 27.0007 41.4945 26.7572 41.9282C26.5137 42.362 26.3905 42.8517 26.3999 43.3479C26.4093 43.844 26.5511 44.3289 26.8109 44.7532H15.5376C15.222 44.7532 14.9194 44.6291 14.6962 44.4081C14.4731 44.1872 14.3477 43.8875 14.3477 43.575V38.0622C14.3469 37.6507 14.4778 37.2495 14.7214 36.9161C14.9651 36.5827 15.3092 36.3343 15.7042 36.2065L16.3498 35.9959V39.4967C16.3513 40.3388 16.6899 41.146 17.2912 41.7414C17.8926 42.3368 18.7077 42.6721 19.5582 42.6736H19.5968C20.0889 42.6728 20.5606 42.4789 20.9086 42.1344C21.2566 41.7899 21.4524 41.3228 21.4532 40.8355V25.2605C21.4518 25.0163 21.4016 24.7747 21.3054 24.5498C21.2092 24.3249 21.069 24.1211 20.8928 23.9502C20.7166 23.7793 20.5079 23.6447 20.2788 23.5541C20.0497 23.4635 19.8048 23.4188 19.5582 23.4225C18.7067 23.4232 17.8903 23.7585 17.2883 24.3547C16.6862 24.9508 16.3476 25.7592 16.3468 26.6023V34.5893L15.2803 34.9369C14.6153 35.1528 14.0363 35.5713 13.6259 36.1326C13.2156 36.6939 12.995 37.3693 12.9956 38.0622V43.5735C12.9964 44.2408 13.2645 44.8806 13.741 45.3525C14.2176 45.8243 14.8637 46.0898 15.5376 46.0905H30.1026L28.2299 56.5622C28.1063 57.3167 28.282 58.0893 28.7201 58.7186C29.1582 59.3479 29.825 59.7852 30.5811 59.9392C31.3372 60.0932 32.1242 59.952 32.7776 59.545C33.431 59.138 33.9003 58.4968 34.0874 57.7552L36.0791 49.4353C36.1206 49.2668 36.2181 49.1171 36.356 49.0102C36.4939 48.9033 36.6641 48.8456 36.8392 48.8462H42.5361C43.7438 48.8442 44.9013 48.3677 45.7544 47.5213C46.6076 46.6749 47.0865 45.5278 47.0862 44.332ZM17.6959 26.6023C17.6973 26.3572 17.7476 26.1148 17.8441 25.8891C17.9406 25.6634 18.0812 25.4589 18.258 25.2873C18.4347 25.1157 18.644 24.9805 18.8738 24.8894C19.1036 24.7984 19.3494 24.7533 19.5968 24.7568C19.7316 24.7572 19.8608 24.8104 19.9561 24.9048C20.0514 24.9992 20.1052 25.1271 20.1056 25.2605V40.8385C20.1052 40.972 20.0514 41.0998 19.9561 41.1942C19.8608 41.2886 19.7316 41.3418 19.5968 41.3422H19.5582C19.0643 41.3414 18.5908 41.1467 18.2417 40.8007C17.8926 40.4548 17.6963 39.9858 17.6959 39.4967V26.6023ZM36.3365 25.4638C36.3356 24.5641 36.6042 23.6843 37.1084 22.9358C37.6125 22.1873 38.3296 21.6037 39.1688 21.2588C40.008 20.9139 40.9317 20.8232 41.823 20.9982C42.7143 21.1731 43.5331 21.606 44.176 22.2418C44.8188 22.8777 45.2567 23.6881 45.4343 24.5705C45.6119 25.4528 45.5212 26.3675 45.1736 27.1988C44.8261 28.0301 44.2374 28.7407 43.482 29.2406C42.7265 29.7406 41.8383 30.0074 40.9297 30.0074C39.7127 30.0059 38.546 29.5268 37.6851 28.6752C36.8242 27.8235 36.3392 26.6688 36.3365 25.4638ZM34.7717 49.126L32.7755 57.4459C32.6883 57.8686 32.4352 58.2396 32.0717 58.4774C31.7082 58.7152 31.2642 58.8004 30.8374 58.714C30.4106 58.6277 30.0358 58.377 29.7957 58.0171C29.5555 57.6572 29.4695 57.2176 29.5567 56.7949L31.4681 46.0905H35.8114C36.6435 46.0946 37.4547 45.8329 38.1246 45.3441C38.7946 44.8554 39.2874 44.1658 39.53 43.3776L41.4131 37.3715C41.444 37.2865 41.4573 37.1963 41.4521 37.1061C41.4468 37.016 41.4232 36.9278 41.3827 36.847C41.3421 36.7661 41.2854 36.6942 41.216 36.6356C41.1466 36.577 41.0659 36.533 40.9789 36.5061C40.8918 36.4792 40.8002 36.4701 40.7094 36.4792C40.6187 36.4884 40.5308 36.5156 40.451 36.5593C40.3712 36.6031 40.3012 36.6623 40.2452 36.7335C40.1891 36.8048 40.1482 36.8865 40.125 36.9738L38.2419 42.98C38.0821 43.4939 37.7595 43.9433 37.3218 44.2616C36.8841 44.5799 36.3545 44.7502 35.8114 44.7473H29.2087C28.8417 44.7109 28.5016 44.5407 28.2542 44.2699C28.0068 43.9992 27.8698 43.647 27.8698 43.2819C27.8698 42.9167 28.0068 42.5646 28.2542 42.2938C28.5016 42.023 28.8417 41.8529 29.2087 41.8164H34.2169C34.542 41.8161 34.8578 41.7093 35.1153 41.5127C35.3727 41.3161 35.5573 41.0407 35.6403 40.7295L37.2958 34.4789C37.5349 33.5795 38.0679 32.7838 38.8116 32.2158C39.5553 31.6478 40.4679 31.3394 41.4071 31.3388H41.4949C42.6233 31.3396 43.7051 31.7841 44.5026 32.5746C45.3001 33.365 45.7479 34.4367 45.7475 35.554V44.332C45.7463 45.173 45.4083 45.9793 44.8077 46.574C44.2071 47.1687 43.3929 47.5033 42.5435 47.5044H36.8466C36.3665 47.5025 35.9 47.6618 35.5231 47.9564C35.1462 48.2509 34.8813 48.6632 34.7717 49.126Z" fill="white"/>
<path d="M49.1149 32.819C48.9362 32.819 48.7648 32.8893 48.6384 33.0144C48.512 33.1396 48.441 33.3093 48.441 33.4862V44.7444C48.4399 46.1647 47.8695 47.5265 46.8552 48.5308C45.841 49.5351 44.4656 50.0998 43.0312 50.101H37.5976C37.4189 50.101 37.2475 50.1713 37.1212 50.2964C36.9948 50.4216 36.9238 50.5913 36.9238 50.7682C36.9238 50.9452 36.9948 51.1149 37.1212 51.24C37.2475 51.3651 37.4189 51.4354 37.5976 51.4354H43.0312C44.8231 51.4338 46.5411 50.7284 47.8082 49.474C49.0754 48.2196 49.7882 46.5186 49.7901 44.7444V33.4862C49.7901 33.3985 49.7727 33.3116 49.7387 33.2305C49.7048 33.1495 49.655 33.0759 49.5923 33.0139C49.5295 32.9519 49.4551 32.9028 49.3732 32.8694C49.2912 32.8359 49.2035 32.8188 49.1149 32.819Z" fill="white"/>
</svg>
